<svg width="48" height="7.4609" version="1.1" viewBox="0 0 12.7 1.974" xmlns="http://www.w3.org/2000/svg">
	<title>Trivial Endeavor Logo</title>
	<path d="m1.73 1.9503c-0.11213-0.04387-0.24924-0.16226-0.31588-0.27275l-0.020511-0.034007-0.063838 0.062839c-0.074242 0.073081-0.20852 0.14435-0.31275 0.16598-0.044865 0.0093139-0.1402 0.012985-0.24712 0.0095156-0.20978-0.0068066-0.26665-0.02546-0.40823-0.1339-0.15848-0.12138-0.26043-0.25861-0.32031-0.43113-0.043197-0.12446-0.054904-0.3701-0.023917-0.50186 0.073126-0.31093 0.37114-0.56681 0.71951-0.61776 0.047055-0.0068822 0.077394-0.021262 0.11388-0.053971 0.027353-0.024524 0.087877-0.062439 0.1345-0.084256 0.076017-0.035572 0.10001-0.040188 0.2325-0.044725 0.16687-0.0057141 0.23789 0.0087311 0.61548 0.1252 0.30695 0.094678 0.47492 0.11148 0.57858 0.057875 0.022354-0.01156 0.06608-0.044464 0.097168-0.07312 0.031089-0.028657 0.059719-0.048909 0.063623-0.045005 0.013478 0.013478-0.031496 0.081542-0.08875 0.13432-0.132 0.12168-0.30597 0.16699-0.51123 0.13316l-0.059964-0.009883-0.045426 0.059567c-0.079049 0.10366-0.12144 0.21432-0.1694 0.44224-0.072451 0.34429-0.13984 0.55096-0.2285 0.70071l-0.042347 0.071527 0.035982 0.071159c0.066555 0.13162 0.21758 0.22863 0.35522 0.22819 0.067088-2.424e-4 0.10873-0.016498 0.075159-0.029382-0.029548-0.011338-0.046289-0.088736-0.032484-0.15018 0.012027-0.053528 0.071871-0.17854 0.13411-0.28014 0.034154-0.055759 0.034156-0.055779 0.00383-0.036388-0.054819 0.035048-0.13242 0.051913-0.16316 0.03546-0.043682-0.023378-0.038302-0.10769 0.00995-0.15595 0.048315-0.048315 0.08383-0.05159 0.06297-0.00581-0.011041 0.024233-0.010607 0.03631 0.00185 0.051315 0.021593 0.026018 0.033497 0.025071 0.15002-0.01193 0.054649-0.017354 0.10119-0.029724 0.10343-0.027488 0.00224 0.00224-0.025677 0.069834-0.062028 0.15022-0.1434 0.31711-0.15626 0.38349-0.074303 0.38349 0.024033 0 0.12934-0.10887 0.21585-0.22315 0.06615-0.087384 0.095249-0.13919 0.11549-0.20562 0.014883-0.048845 0.033294-0.096319 0.040912-0.1055 0.014298-0.017228 0.097509-0.03804 0.10843-0.02712 0.00339 0.00339-0.025843 0.10655-0.064956 0.22925-0.085591 0.26851-0.093398 0.30797-0.06551 0.33111 0.046284 0.038412 0.14637-0.045696 0.29841-0.25077 0.069859-0.094229 0.078116-0.11209 0.085805-0.18566 0.00468-0.044769 0.015679-0.088196 0.024443-0.096504 0.020576-0.019504 0.095018-0.035134 0.10307-0.02164 0.0034 0.0057-0.00188 0.062329-0.011737 0.12583-0.027588 0.1777-0.027933 0.34163-8.044e-4 0.38303 0.026303 0.040143 0.052322 0.042473 0.10636 0.00952 0.063588-0.038775 0.092688-0.098166 0.091766-0.18729-6.158e-4 -0.059478 0.00714-0.092589 0.034131-0.14568 0.034143-0.067168 0.13767-0.18145 0.16437-0.18145 0.00864 0 0.010944 0.027453 0.00646 0.076954-0.00702 0.077463-0.058871 0.20758-0.11301 0.28361-0.034304 0.048175-0.025007 0.097489 0.020533 0.10892 0.077202 0.019376 0.22161-0.15482 0.28211-0.34029l0.040044-0.12277 0.053906-0.011499c0.029648-0.00632 0.056388-0.00902 0.059422-0.00598 0.00303 0.00304-0.028835 0.1138-0.070819 0.24615-0.081645 0.25737-0.087627 0.29121-0.056108 0.31737 0.016878 0.014007 0.027701 0.012762 0.065361-0.00752 0.057271-0.030843 0.15594-0.13988 0.16655-0.18407 0.027969-0.11639 0.1562-0.27564 0.2674-0.33209 0.080192-0.040707 0.20786-0.051989 0.28226-0.024946 0.064713 0.023522 0.064523 0.027915-0.012331 0.28519-0.062824 0.21031-0.06839 0.24669-0.039439 0.2578 0.031316 0.012017 0.090952-0.04128 0.20379-0.18213l0.10744-0.13411 0.03543-0.15057c0.043763-0.18599 0.08123-0.29301 0.16072-0.4591 0.064679-0.13513 0.15452-0.26236 0.18526-0.26236 0.027504 0 0.037757 0.046988 0.035815 0.16415-0.0033408 0.2006-0.081889 0.41822-0.22786 0.63125l-0.074723 0.10905-0.00104 0.11825c-9.184e-4 0.10437 0.00217 0.12146 0.026322 0.14567 0.022136 0.022188 0.035607 0.025618 0.070514 0.01795 0.05716-0.012554 0.19744-0.15491 0.30643-0.31097 0.045671-0.065395 0.08508-0.11277 0.087576-0.10529 0.010552 0.031657-0.016638 0.083312-0.10699 0.20325-0.19838 0.26335-0.33894 0.34039-0.44737 0.24518-0.051517-0.045232-0.079987-0.13846-0.067028-0.2195 0.0080862-0.050568 0.0069629-0.049667-0.093095 0.074666-0.10508 0.13057-0.17494 0.18374-0.24098 0.18339-0.087308-4.849e-4 -0.10657-0.063263-0.062896-0.20506 0.00682-0.022148-0.00299-0.014209-0.031698 0.025658-0.13158 0.1827-0.22743 0.22402-0.31547 0.13599-0.02399-0.02399-0.043618-0.054779-0.043618-0.06842 0-0.045546-0.016388-0.042089-0.079256 0.016716-0.10645 0.099572-0.20274 0.12238-0.26285 0.062275-0.028214-0.028215-0.032001-0.040878-0.025893-0.086595 0.00394-0.029451 0.011183-0.06798 0.016107-0.085619 0.00801-0.028679 3e-3 -0.026463-0.04729 0.020952-0.094506 0.089098-0.14716 0.10318-0.20006 0.053485l-0.03001-0.028194-0.039112 0.04745c-0.073786 0.089516-0.18885 0.13431-0.25461 0.099114-0.0385-0.020604-0.064805-0.10746-0.065274-0.21552l-4.315e-4 -0.099164-0.040989 0.051315c-0.085892 0.10753-0.20773 0.22504-0.25914 0.24993-0.14164 0.068566-0.2276-0.0071334-0.18116-0.15953 0.010652-0.03495 0.017384-0.06553 0.014959-0.067954-0.00242-0.00242-0.025023 0.023674-0.050219 0.057998-0.056517 0.076992-0.16141 0.1764-0.1986 0.1882-0.01524 0.00484-0.044665 0.02575-0.065388 0.046473-0.032486 0.032486-0.047097 0.037596-0.10602 0.037079-0.037586-3.395e-4 -0.09485-0.010973-0.12725-0.023651zm-0.73316-0.15502c0.096186-0.045011 0.20473-0.14992 0.27184-0.26274 0.0413-0.06943 0.04439-0.082382 0.04653-0.19508l0.00229-0.12071-0.07288 0.069515c-0.040081 0.038234-0.10245 0.0845-0.13859 0.10281-0.03728 0.018891-0.069465 0.045128-0.074388 0.060639-0.024747 0.077971-0.16239 0.17902-0.26563 0.19501-0.15184 0.023515-0.25365-0.11418-0.14933-0.20197 0.047423-0.039904 0.060334-0.035177 0.030072 0.011009-0.026841 0.040965-0.017986 0.081964 0.027536 0.12749 0.060645 0.060645 0.17363 0.043302 0.25106-0.038539 0.018955-0.020034 0.040211-0.051645 0.047237-0.070247l0.012773-0.033822-0.12421-0.00538c-0.14676-0.0063624-0.2143-0.031857-0.3044-0.1149l-0.06022-0.055509-0.036479 0.043696c-0.1269 0.15201-0.086945 0.38246 0.084711 0.48855 0.10227 0.063209 0.31718 0.063292 0.45206 1.939e-4zm2.9402 0.019296c0.066209-0.034238 0.15973-0.17318 0.24635-0.36601 0.045635-0.10159 0.047466-0.1102 0.026773-0.126-0.030812-0.023514-0.098955-0.010405-0.15057 0.028967-0.052261 0.039862-0.15491 0.19185-0.18751 0.27764-0.037673 0.099147-0.028619 0.20426 0.017594 0.20426 0.00599 0 0.02731-0.00849 0.047366-0.018857zm-3.6066-0.18299c-0.027892-0.10102 0.0096448-0.2216 0.10489-0.33696l0.047665-0.05773-0.02998-0.064144c-0.046561-0.099619-0.041821-0.3337 0.006568-0.32438 0.016272 0.003132 0.019384 0.014996 0.014467 0.055144-0.01226 0.10009-0.006116 0.19312 0.016649 0.25211l0.023093 0.059841 0.085952-0.040211c0.07368-0.03447 0.10061-0.040236 0.18858-0.040376 0.081353-1.454e-4 0.11368 0.0057 0.15594 0.028121 0.062357 0.033085 0.10194 0.079163 0.1136 0.13223 0.00458 0.020836 0.011418 0.037884 0.015204 0.037884 0.00379 0 0.03485-0.020529 0.069031-0.045621 0.087255-0.064051 0.15075-0.14881 0.19122-0.25526 0.01105-0.029064 0.00972-0.030778-0.01632-0.020996-0.053914 0.020254-0.25514 0.042554-0.30788 0.034121-0.1768-0.028271-0.32309-0.18771-0.35777-0.38991-0.023379-0.13634 9.9349e-4 -0.25004 0.088908-0.41478 0.011391-0.021344-0.11747 0.020783-0.22549 0.073715-0.49611 0.24311-0.61686 0.91153-0.2356 1.3042 0.032544 0.033515 0.060365 0.060937 0.061826 0.060937 0.00146 0-0.003297-0.021556-0.010571-0.047902zm4.4748-0.41508c0.039576-0.097398 0.059181-0.22808 0.048448-0.32295l-0.00877-0.077478-0.023442 0.04363c-0.040127 0.074695-0.099357 0.27308-0.12645 0.42356-0.014274 0.07927-0.025831 0.15033-0.025683 0.15792 4.703e-4 0.024133 0.10506-0.14878 0.1359-0.22468zm-3.8298 0.16082c0.020172-0.012467 0.012728-0.074469-0.014254-0.11873-0.053971-0.088523-0.21209-0.11803-0.352-0.065684-0.039072 0.014619-0.07104 0.030653-0.07104 0.035632 0 0.038035 0.11629 0.13101 0.19335 0.15459 0.042657 0.013051 0.22027 0.00882 0.24395-0.00581zm0.56288-0.5616c-0.00326-0.002977-0.019042-0.009441-0.03506-0.014366-0.024722-0.007601-0.031993-0.002085-0.048108 0.036481-0.022071 0.052823-0.024317 0.076728-0.00616 0.065503 0.019406-0.011994 0.015363 0.008008-0.0065 0.03217-0.019865 0.021951-0.044551 0.1717-0.043338 0.26289 5.528e-4 0.041545 0.014432 0.010512 0.072891-0.16298 0.039715-0.11786 0.069537-0.21673 0.066273-0.2197zm-0.44853 0.15818c-0.043663-0.043662-0.031393-0.12237 0.029497-0.18923 0.033916-0.037236 0.054974-0.037493 0.02896-3.3941e-4 -0.029084 0.041523-0.025934 0.1323 0.00569 0.16392 0.035816 0.035816 0.07715 0.032034 0.13892-0.012711 0.05327-0.038588 0.067213-0.066756 0.070808-0.14305 0.00222-0.047208-0.020503-0.058841-0.11928-0.061054-0.089155-0.001998-0.043344-0.031557 0.050432-0.032542 0.076909-8.0973e-4 0.077067-8.8731e-4 0.077016-0.039296-8.05e-5 -0.054483-0.050068-0.15445-0.12-0.23995-0.074339-0.090888-0.19872-0.15629-0.34044-0.17901l-0.095019-0.015232-0.031228 0.037492c-0.069953 0.083983-0.086627 0.14182-0.086627 0.30048 0 0.12389 0.004418 0.15709 0.027571 0.20717 0.05826 0.12603 0.20108 0.22734 0.32201 0.22841l0.067351 5.9639e-4zm0.4875-0.23585c0-0.009767 0.023462-0.064633 0.052137-0.12192 0.03664-0.073204 0.079539-0.13236 0.14432-0.19903l0.092187-0.094863-0.070559-0.022192c-0.038806-0.012205-0.16424-0.061857-0.27873-0.11034-0.31742-0.1344-0.44578-0.14455-0.59746-0.047223l-0.064915 0.041656 0.08248 0.01649c0.19598 0.039183 0.35762 0.16172 0.43619 0.33068 0.02625 0.056446 0.05166 0.12133 0.056465 0.14418 0.013751 0.065381 0.027237 0.060168 0.058143-0.022474 0.016007-0.042802 0.036549-0.076803 0.046401-0.076803 0.022385 0 0.022069 0.016684-0.00181 0.095395-0.015282 0.050378-0.015909 0.065417-0.00307 0.073569 0.025039 0.015896 0.048212 0.012475 0.048212-0.007118zm6.2476 1.1376c0-0.039816 0.15763-0.54856 0.17698-0.57119 0.018689-0.021864 0.10016-0.044907 0.11308-0.031984 0.00514 0.00514-0.066469 0.24978-0.10786 0.36849-0.00369 0.010584 0.026483-0.026941 0.067052-0.083388 0.084254-0.11723 0.20274-0.24353 0.25364-0.27038 0.051047-0.026921 0.09717-0.022327 0.13272 0.013219 0.044153 0.044153 0.040572 0.083429-0.026241 0.28786-0.031751 0.097152-0.05773 0.18593-0.05773 0.19729 0 0.095157 0.18462-0.061039 0.23633-0.19994 0.025723-0.069097 0.092036-0.1636 0.15303-0.21809 0.089205-0.079686 0.22652-0.12006 0.29098-0.085557 0.028252 0.01512 0.031184 0.00674 0.11006-0.31453 0.025985-0.10584 0.052874-0.19965 0.059754-0.20847 0.012855-0.01648 0.112-0.022955 0.112-0.007314 0 0.004795-0.061013 0.23575-0.13559 0.51323-0.074571 0.27748-0.13374 0.51701-0.1315 0.53229 0.00767 0.05213 0.03881 0.039793 0.12429-0.049241 0.066368-0.069132 0.088759-0.10261 0.10187-0.15232 0.031841-0.1207 0.14992-0.26334 0.25494-0.30795 0.069065-0.029341 0.17374-0.019724 0.21585 0.019831 0.057262 0.053795 0.039134 0.15779-0.040647 0.23317-0.051707 0.048858-0.17612 0.12128-0.25119 0.14621-0.06336 0.021045-0.063861 0.02164-0.056489 0.067067 0.011542 0.071125 0.04773 0.098801 0.1282 0.098048 0.077298-7.224e-4 0.14329-0.033638 0.24221-0.1208 0.043132-0.038009 0.064762-0.068983 0.074814-0.10713 0.022003-0.083502 0.067545-0.15168 0.15757-0.2359 0.09281-0.086824 0.1667-0.11924 0.27178-0.11924 0.06261 0 0.1414 0.018331 0.16359 0.038062 0.0055 0.0049-0.01902 0.10947-0.0545 0.23238-0.06644 0.23016-0.07419 0.27374-0.05116 0.28797 0.03059 0.018905 0.10539-0.051078 0.24268-0.22705 0.08338-0.10687 0.08713-0.11477 0.09564-0.20105 0.0049-0.049394 0.01576-0.095368 0.02421-0.10216 0.02418-0.019457 0.09543-0.031068 0.10414-0.016971 0.0043 0.00697-8.92e-4 0.066484-0.01156 0.13225-0.02657 0.16382-0.02593 0.34201 0.0014 0.38098 0.01687 0.024088 0.02842 0.028281 0.06032 0.021901 0.08336-0.016672 0.13684-0.098212 0.13703-0.20891 1.46e-4 -0.095849 0.04049-0.18263 0.1225-0.26363 0.03394-0.033515 0.06641-0.060937 0.07217-0.060937 0.01977 0 0.01045 0.11616-0.01517 0.18904-0.0141 0.040119-0.04585 0.10339-0.07056 0.1406-0.02471 0.037211-0.04492 0.07551-0.04492 0.085108 0 0.023493 0.04173 0.059916 0.06865 0.059916 0.03924 0 0.1353-0.10134 0.15045-0.15872 0.03191-0.12084 0.16659-0.27067 0.27717-0.30835 0.12068-0.04112 0.21132-0.017419 0.2781 0.072724 0.04355 0.05879 0.04424 0.17799 0.0016 0.28449-0.02852 0.071288-0.0317 0.089292-0.01738 0.098364 0.0096 0.00611 0.02378 0.011193 0.03142 0.011301 0.02198 2.909e-4 0.10497-0.087083 0.18723-0.19715 0.07144-0.095596 0.07441-0.10242 0.05422-0.12473-0.02864-0.031645-0.01538-0.095635 0.02952-0.1425 0.04737-0.049443 0.0681-0.046704 0.05925 0.00783-0.0099 0.061108 0.01871 0.066459 0.15084 0.028191 0.05934-0.017189 0.1094-0.029748 0.11124-0.027909 0.0018 0.00184-0.02479 0.063442-0.05917 0.1369-0.13349 0.28518-0.15818 0.38519-0.09725 0.39391 0.04219 0.00604 0.12902-0.081649 0.26865-0.27128 0.07056-0.095828 0.1303-0.1684 0.13275-0.16128 0.01065 0.030929-0.01724 0.081311-0.12095 0.21848-0.17552 0.23215-0.23248 0.28086-0.3284 0.28086-0.14362 0-0.14516-0.14504-0.0041-0.38381l0.06654-0.1126-0.07178 0.031893c-0.05948 0.026427-0.0826 0.047019-0.13492 0.12016-0.09135 0.12771-0.19268 0.23564-0.2394 0.25499-0.03128 0.012956-0.04943 0.013486-0.07905 0.00231-0.0339-0.012796-0.04358-0.010603-0.08178 0.018532-0.05857 0.044674-0.1267 0.067329-0.20374 0.067752-0.10864 5.964e-4 -0.18363-0.058349-0.21784-0.17124-7e-3 -0.023025-0.0095-0.022544-0.04232 0.00805-0.07211 0.067235-0.13038 0.078555-0.17732 0.03445l-0.02862-0.026884-0.04831 0.053471c-0.09641 0.10672-0.20803 0.13355-0.2665 0.064064-0.03593-0.0427-0.04508-0.080161-0.04981-0.20401l-0.0032-0.082513-0.05712 0.076098c-0.07783 0.10368-0.17899 0.20951-0.2211 0.23128-0.01915 0.0099-0.04992 0.018005-0.06837 0.018005-0.08279 0-0.1076-0.052836-0.07828-0.16677 0.01711-0.066516 0.01694-0.06875-3e-3 -0.03898-0.12022 0.1795-0.20722 0.2344-0.30259 0.19095-0.0301-0.013715-0.084181-0.10168-0.084181-0.13693 0-0.00844-0.031225 0.010093-0.069389 0.041178-0.12556 0.10227-0.29339 0.13942-0.39265 0.086901-0.027334-0.014463-0.057681-0.047254-0.07811-0.084404l-0.03341-0.060752-0.043564 0.050677c-0.095602 0.11121-0.19965 0.14806-0.25677 0.09094-0.022129-0.022128-0.025824-0.037165-0.019849-0.08076 0.00404-0.029463 0.011289-0.064854 0.016112-0.078647 0.00482-0.013793-0.018397 0.010781-0.051601 0.054607s-0.079413 0.091454-0.10269 0.10584c-0.050431 0.031168-0.11885 0.033817-0.15838 0.00613-0.033733-0.023628-0.066925-0.08337-0.066925-0.12046 0-0.037189-0.014068-0.032781-0.053637 0.01681-0.046933 0.05882-0.14808 0.12367-0.19289 0.12367-0.049437 0-0.099848-0.051384-0.099848-0.10177 0-0.021338 0.025978-0.11986 0.05773-0.21895 0.031752-0.099083 0.05773-0.19157 0.05773-0.20553 0-0.10719-0.25514 0.17168-0.37456 0.4094-0.05385 0.10719-0.063499 0.11638-0.12256 0.11665-0.030824 1.455e-4 -0.041693-0.00551-0.041693-0.021691zm3.7671-0.041292c0.07728-0.047122 0.10839-0.10113 0.11174-0.19401 0.0023-0.063259 0.0115-0.098883 0.03772-0.1458 0.01908-0.034147 0.0347-0.073347 0.0347-0.087113 0-0.03462-0.06861-0.10004-0.10485-0.09998-0.07135 9.7e-5 -0.14976 0.078607-0.21195 0.21217-0.02926 0.062856-0.03562 0.094284-0.03579 0.17694-1.94e-4 0.094329 2e-3 0.10241 0.03579 0.1315 0.0434 0.037368 0.07891 0.039053 0.13263 0.0063zm-2.7501-0.051125c0.070445-0.06515 0.13135-0.16739 0.18533-0.31109 0.048405-0.12887 0.044374-0.1519-0.026585-0.1519-0.032335 0-0.054918 0.015716-0.11933 0.083042-0.095804 0.10014-0.16044 0.22358-0.1686 0.322-0.00987 0.11906 0.039275 0.1411 0.12919 0.05795zm1.2342 0.024683c0.05684-0.035127 0.13564-0.15171 0.21868-0.32352 0.06501-0.13451 0.06843-0.14613 0.0477-0.16186-0.05785-0.043902-0.16333 0.015855-0.24796 0.14047-0.10333 0.15215-0.146 0.29754-0.10267 0.34975 0.022172 0.026716 0.034328 0.026018 0.084253-0.00484zm-0.56111-0.18693c0.1167-0.058155 0.19903-0.18362 0.1773-0.2702-0.018511-0.073756-0.12143-0.041608-0.18796 0.058713-0.032378 0.048823-0.088625 0.19658-0.088625 0.23281 0 0.019461 0.030633 0.012881 0.099282-0.021329zm-1.9274 0.24373c-0.028224-0.010377-0.10616-0.020748-0.17319-0.023046-0.13997-0.0048002-0.22909-0.035197-0.37684-0.12854l-0.088194-0.055716-0.11707 0.061226c-0.16418 0.085864-0.22815 0.10192-0.40604 0.10192-0.20208 0-0.29852-0.032942-0.44681-0.15262-0.067236-0.054265-0.18531-0.2025-0.2273-0.28536-0.080288-0.15844-0.10893-0.44195-0.062737-0.62091 0.046694-0.18088 0.15129-0.33399 0.30959-0.45316 0.10307-0.077594 0.18287-0.1102 0.33428-0.13661 0.090396-0.015764 0.12136-0.027534 0.16798-0.063852 0.088861-0.069231 0.18188-0.099473 0.32696-0.1063 0.15235-0.007174 0.20652 0.0027851 0.5502 0.10116 0.38462 0.11009 0.53738 0.12519 0.61878 0.061155 0.026688-0.020992 0.032975-0.036947 0.032975-0.083677 0-0.048059 0.00376-0.057025 0.02245-0.053482 0.050793 0.0096325 0.027121 0.1491-0.037871 0.22312-0.064604 0.07358-0.14678 0.10809-0.25677 0.10783-0.051389-9.697e-5 -0.13348-0.008705-0.18242-0.019072-0.081778-0.017324-0.090932-0.017084-0.11309 0.002972-0.057693 0.052211-0.15238 0.31847-0.18324 0.51526l-0.00884 0.056342 0.079293-0.008971c0.13359-0.015113 0.25603 0.043985 0.24201 0.11681-0.00786 0.040806-0.044285 0.033378-0.072728-0.01483-0.014838-0.025148-0.042049-0.051454-0.06047-0.058458-0.041272-0.015692-0.18509 0.004972-0.19975 0.028701-0.030099 0.048701-0.040966 0.43085-0.014696 0.51682 0.00862 0.028224 0.034754 0.083067 0.058067 0.12187l0.042386 0.070559 0.11512-0.00107c0.090202-8.388e-4 0.12642-0.00688 0.16731-0.027936 0.1076-0.05539 0.1882-0.18511 0.14307-0.23024-0.014768-0.014768-0.025021-0.015897-0.045389-5e-3 -0.044362 0.023742-0.10142 0.017074-0.12349-0.014431-0.025348-0.036189-0.025839-0.11773-8.582e-4 -0.14271 0.049553-0.049553 0.14926-0.031372 0.19286 0.035167 0.028463 0.04344 0.037099 0.14486 0.019537 0.22946-0.01975 0.095136-0.07968 0.1827-0.16634 0.24304l-0.069542 0.048423h0.06377c0.073133 0 0.094559-0.015427 0.094559-0.068083 0-0.028736 0.00465-0.035506 0.020293-0.029506 0.011161 0.00428 0.022849 0.00779 0.025975 0.00779 0.017316 0 0.028766 0.067194 0.016164 0.094853-0.026684 0.058564-0.1132 0.074676-0.20996 0.0391zm-0.97273-0.12826c0.066234-0.032227 0.19659-0.14313 0.19659-0.16725 0-0.00699-0.037609-0.034717-0.083575-0.061606l-0.083575-0.048889-0.049381 0.044613c-0.18187 0.16431-0.47276 0.060825-0.31955-0.11368l0.04122-0.046947 0.083861 0.00793c0.046767 0.00442 0.11712 0.00143 0.15905-0.00676l0.075193-0.014694-0.00697-0.052572c-0.012876-0.097019-0.12456-0.15795-0.26622-0.14523-0.088034 0.0079034-0.16157 0.044126-0.21643 0.10661-0.1457 0.16594-0.11237 0.40603 0.069831 0.50302 0.093689 0.049874 0.29276 0.047609 0.39995-0.00455zm0.68408-0.063172c0-0.00339-0.021221-0.039339-0.047157-0.079885-0.025937-0.040545-0.060453-0.11138-0.076703-0.1574-0.01625-0.046026-0.029667-0.074012-0.029815-0.062193-1.455e-4 0.01182-0.028711 0.063777-0.063471 0.11546l-0.063201 0.093969 0.047165 0.024632c0.082962 0.043327 0.23318 0.085471 0.23318 0.06542zm-1.2973-0.082756c-0.019575-0.056154-0.00716-0.17716 0.024534-0.23914 0.06139-0.12006 0.25598-0.2481 0.39397-0.25924 0.125-0.01009 0.27587 0.076606 0.27587 0.15852 0 0.017098 0.00544 0.031087 0.012098 0.031087 0.028845 0 0.16655-0.14603 0.20405-0.21639l0.040694-0.07635-0.067484 4.3638e-4c-0.037117 2.4243e-4 -0.09635 7.37e-4 -0.13163 0.001091-0.1609 0.001615-0.19623-0.002497-0.25376-0.029541-0.12214-0.057413-0.21205-0.21129-0.22383-0.38306-0.00849-0.12392 0.010162-0.20786 0.067281-0.30272 0.023549-0.039107 0.038072-0.071103 0.032274-0.071103-0.031064 0-0.1964 0.059093-0.26109 0.09332-0.084907 0.044918-0.2103 0.17336-0.27583 0.28254-0.18501 0.30823-0.14579 0.71314 0.095054 0.98138 0.039885 0.044423 0.074733 0.078554 0.077441 0.075846 0.00271-0.00271-0.00163-0.023718-0.00964-0.046689zm0.49333-0.044037c0.053794-0.022477 0.11782-0.096513 0.099397-0.11494-0.00731-0.00731-0.076652-0.016582-0.15409-0.020607-0.13829-0.00719-0.14094-0.0068-0.14807 0.021658-0.00841 0.033551 0.021559 0.098505 0.05422 0.11753 0.031805 0.018525 0.09946 0.016866 0.14854-0.00364zm0.43157-0.16531c0.03408-0.072322 0.080775-0.18543 0.10376-0.25136 0.034763-0.099685 0.038759-0.12179 0.023738-0.1313-0.033139-0.020979-0.043475-0.011686-0.081405 0.073192-0.045921 0.10276-0.1296 0.19869-0.20528 0.23532-0.058023 0.028088-0.10344 0.08055-0.093082 0.10753 0.00591 0.015414 0.15627 0.098108 0.17838 0.098108 0.00656 0 0.039803-0.059173 0.073884-0.1315zm-0.29467 0.0032c0-0.00706-0.00577-0.012829-0.012829-0.012829-0.00706 0-0.012829 0.00577-0.012829 0.012829 0 0.00706 0.00577 0.012829 0.012829 0.012829 0.00706 0 0.012829-0.00577 0.012829-0.012829zm0.089802-0.44068c0-0.002473-0.00617-0.022199-0.013711-0.043832-0.015964-0.045794 0.00265-0.091987 0.057854-0.14356l0.033752-0.031534-0.019704 0.047157c-0.023127 0.055351-0.024154 0.073093-0.00686 0.11857l0.01284 0.033773 0.037788-0.026907c0.031268-0.022265 0.03846-0.037355 0.041682-0.08746 0.00353-0.054999 0.00684-0.060553 0.035967-0.060553 0.038649 0 0.050017 0.044286 0.023895 0.093094-0.015183 0.02837-0.013827 0.034005 0.013503 0.056136 0.016709 0.01353 0.032317 0.022663 0.034686 0.020296 0.00237-0.002366 0.00995-0.044184 0.016855-0.092926 0.014872-0.10504 0.012194-0.10819-0.092151-0.10847-0.074462-1.9395e-4 -0.098136-0.01633-0.044901-0.030597 0.015876-0.004252 0.0534-0.007814 0.083387-0.007911 0.052926-1.9394e-4 0.054523-0.001396 0.054512-0.041869-1.19e-5 -0.062893-0.064609-0.18657-0.14115-0.27027-0.091949-0.10054-0.19349-0.15181-0.31671-0.15991l-0.092252-0.006067-0.039759 0.062576c-0.060136 0.094646-0.081078 0.18209-0.074842 0.31251 0.00828 0.17325 0.069717 0.27618 0.2093 0.35069 0.032519 0.017358 0.18602 0.031445 0.18602 0.017071zm0.17594-0.017487c-0.02077-0.02077-0.023214-0.02077-0.043984 0s-0.019549 0.021992 0.021992 0.021992 0.042762-0.001222 0.021992-0.021992zm0.20772-0.026116c0.031867-0.12155 0.032017-0.11734-0.0047-0.1313-0.018837-0.007162-0.039113-0.013022-0.045056-0.013022-0.013997 0-0.023249 0.14612-0.00962 0.15199 0.00569 0.002449 0.00362 0.012553-0.00459 0.022451-0.01216 0.014652-0.00878 0.017995 0.018213 0.017995 0.02751 0 0.035294-0.008183 0.045761-0.048108zm-0.037281-0.016036c0-0.007056 0.00611-0.012829 0.013586-0.012829 0.00747 0 0.010018 0.005773 0.00566 0.012829-0.00436 0.007056-0.010475 0.012829-0.013586 0.012829-0.00311 0-0.00566-0.005773-0.00566-0.012829zm0.12157-0.22771c0.033062-0.089833 0.11264-0.22075 0.17916-0.29474 0.032159-0.035768 0.05847-0.067601 0.05847-0.07074 0-0.003137-0.024083-0.012922-0.053518-0.021741-0.029435-0.0088188-0.14483-0.052874-0.25643-0.097901-0.24318-0.098115-0.33612-0.11856-0.44215-0.097265-0.040967 0.0082272-0.097774 0.030562-0.12624 0.049634l-0.051756 0.034675 0.069001 0.010232c0.1032 0.015302 0.21603 0.075074 0.30118 0.15955 0.086455 0.085768 0.11764 0.14019 0.15675 0.2736 0.022865 0.077984 0.033867 0.097646 0.058507 0.10456 0.070701 0.019836 0.083572 0.013839 0.10702-0.049865zm-4.7175 0.45129c-0.040701-0.02208-0.042457-0.031372-0.015707-0.083101 0.023257-0.044974 0.034254-0.046318 0.091165-0.011145 0.047402 0.029296 0.048967 0.033451 0.030696 0.081506-0.014453 0.038016-0.051394 0.042449-0.10616 0.012741zm1.1161 2.909e-4c-0.040705-0.022429-0.042448-0.031689-0.015707-0.083401 0.022837-0.044161 0.029168-0.045344 0.082404-0.015399 0.034319 0.019305 0.039408 0.028742 0.036319 0.067351-0.00299 0.037418-0.00894 0.0454-0.035665 0.047895-0.01764 0.00165-0.047948-0.00575-0.067351-0.016446z" style="fill:#ffffff;stroke-width:.012829"/>
</svg>
